<svg id="Layer_1" enable-background="new 0 0 511.449 511.449" height="512" viewBox="0 0 511.449 511.449" width="512" xmlns="http://www.w3.org/2000/svg"><path d="m436.508 74.941c-99.912-99.914-261.639-99.93-361.566 0-99.914 99.912-99.93 261.639 0 361.566 99.912 99.914 261.639 99.93 361.566 0 99.913-99.911 99.929-261.638 0-361.566z" fill="#ffebd2"/><path d="m231.345 1.208c-120.676 11.424-217.175 106.929-229.875 227.455-1.376 13.061 9.471 24.231 22.665 23.126 121.147-10.31 218.474-106.262 230.094-227.674 1.253-13.096-9.734-24.146-22.884-22.907z" fill="#fff3e4"/><g fill="#c79a83"><path d="m170.391 191.391h170.666c11.598 0 21-9.402 21-21s-9.402-21-21-21h-170.666c-11.598 0-21 9.402-21 21s9.403 21 21 21z"/><path d="m308.724 255.724c0-11.598-9.402-21-21-21h-117.333c-11.598 0-21 9.402-21 21s9.402 21 21 21h117.333c11.598 0 21-9.402 21-21z"/><path d="m234.391 320.057h-64c-11.598 0-21 9.402-21 21s9.402 21 21 21h64c11.598 0 21-9.402 21-21s-9.402-21-21-21z"/></g><path d="m383.724 320.057h-21.667v-21.666c0-11.598-9.402-21-21-21s-21 9.402-21 21v21.666h-21.666c-11.598 0-21 9.402-21 21s9.402 21 21 21h21.666v21.667c0 11.598 9.402 21 21 21s21-9.402 21-21v-21.667h21.667c11.598 0 21-9.402 21-21s-9.402-21-21-21z" fill="#99d856"/></svg>